# xmcd
#
# Track frame offsets: 
#        182
#        21830
#        40845
#        58862
#        73962
#        91762
#        107927
#        122397
#        138987
#        152115
#        165717
#
# Disc length: 2435 seconds
#
# Revision: 1
# Processed by: cddbd v1.5.2PL0 Copyright (c) Steve Scherf et al.
# Submitted via: ExactAudioCopy v1.1
#
DISCID=9309810b
DTITLE=Lobos Los - By The Light Of The Moon
DYEAR=1987
DGENRE=Rock
TTITLE0=One Time One Night
TTITLE1=Shakin' Shakin' Shakes
TTITLE2=Is This All There Is?
TTITLE3=Prenda Del Alma
TTITLE4=All I Wanted To Do Was Dance
TTITLE5=Set Me Free (Rosa Lee)
TTITLE6=The Hardest Time
TTITLE7=My Baby's Gone
TTITLE8=River Of Fools
TTITLE9=The Mess We're In
TTITLE10=Tears of God
EXTD=
EXTT0=
EXTT1=
EXTT2=
EXTT3=
EXTT4=
EXTT5=
EXTT6=
EXTT7=
EXTT8=
EXTT9=
EXTT10=
PLAYORDER=
